HIERARCHY
ROOT Hips
{
	OFFSET 	 0.0	 0.0	 0.0
	CHANNELS 6 Xposition Yposition Zposition Xrotation Yrotation Zrotation 
	JOINT Spine
	{
		OFFSET 	 15.3169	 0.0	 -0.012192
		CHANNELS 3 Xrotation Yrotation Zrotation 
		JOINT Spine_1
		{
			OFFSET 	 15.3176	 0.0	 -0.012192
			CHANNELS 3 Xrotation Yrotation Zrotation 
			JOINT Neck
			{
				OFFSET 	 19.9142	 -1e-06	 1.563377
				CHANNELS 3 Xrotation Yrotation Zrotation 
				JOINT Head
				{
					OFFSET 	 6.926521	 0.0	 0.0
					CHANNELS 3 Xrotation Yrotation Zrotation 
					End Site
					{
						OFFSET 	 20.766598	 0.0	 0.0
					}
				}
				JOINT LeftShoulder
				{
					OFFSET 	 -6.201691	 -7.28423	 0.708832
					CHANNELS 3 Xrotation Yrotation Zrotation 
					JOINT LeftArm
					{
						OFFSET 	 14.107998	 1.3e-05	 0.0
						CHANNELS 3 Xrotation Yrotation Zrotation 
						JOINT LeftForeArm
						{
							OFFSET 	 28.5802	 0.0	 0.0
							CHANNELS 3 Xrotation Yrotation Zrotation 
							JOINT LeftHand
							{
								OFFSET 	 27.091896	 0.0	 0.0
								CHANNELS 3 Xrotation Yrotation Zrotation 
								JOINT Bip01_L_Finger0
								{
									OFFSET 	 2.676086	 3.19825	 0.628212
									CHANNELS 3 Xrotation Yrotation Zrotation 
									JOINT Bip01_L_Finger01
									{
										OFFSET 	 2.82782	 0.0	 0.0
										CHANNELS 3 Xrotation Yrotation Zrotation 
										JOINT Bip01_L_Finger02
										{
											OFFSET 	 3.100327	 0.0	 0.0
											CHANNELS 3 Xrotation Yrotation Zrotation 
											End Site
											{
												OFFSET 	 2.683968	 0.0	 0.0
											}
										}
									}
								}
								JOINT Bip01_L_Finger1
								{
									OFFSET 	 9.438972	 2.24244	 -0.203926
									CHANNELS 3 Xrotation Yrotation Zrotation 
									JOINT Bip01_L_Finger11
									{
										OFFSET 	 3.12896	 0.0	 0.0
										CHANNELS 3 Xrotation Yrotation Zrotation 
										JOINT Bip01_L_Finger12
										{
											OFFSET 	 2.379051	 0.0	 0.0
											CHANNELS 3 Xrotation Yrotation Zrotation 
											End Site
											{
												OFFSET 	 2.09993	 0.0	 0.0
											}
										}
									}
								}
								JOINT Bip01_L_Finger2
								{
									OFFSET 	 9.55928	 -0.145352	 -0.186424
									CHANNELS 3 Xrotation Yrotation Zrotation 
									JOINT Bip01_L_Finger21
									{
										OFFSET 	 3.801407	 0.0	 0.0
										CHANNELS 3 Xrotation Yrotation Zrotation 
										JOINT Bip01_L_Finger22
										{
											OFFSET 	 2.848793	 0.0	 0.0
											CHANNELS 3 Xrotation Yrotation Zrotation 
											End Site
											{
												OFFSET 	 2.01886	 0.0	 0.0
											}
										}
									}
								}
								JOINT Bip01_L_Finger3
								{
									OFFSET 	 8.993629	 -2.30169	 0.226974
									CHANNELS 3 Xrotation Yrotation Zrotation 
									JOINT Bip01_L_Finger31
									{
										OFFSET 	 3.369652	 0.0	 0.0
										CHANNELS 3 Xrotation Yrotation Zrotation 
										JOINT Bip01_L_Finger32
										{
											OFFSET 	 2.444229	 0.0	 0.0
											CHANNELS 3 Xrotation Yrotation Zrotation 
											End Site
											{
												OFFSET 	 2.057808	 0.0	 0.0
											}
										}
									}
								}
								JOINT Bip01_L_Finger4
								{
									OFFSET 	 8.023811	 -3.97473	 1.201897
									CHANNELS 3 Xrotation Yrotation Zrotation 
									JOINT Bip01_L_Finger41
									{
										OFFSET 	 2.908783	 0.0	 0.0
										CHANNELS 3 Xrotation Yrotation Zrotation 
										JOINT Bip01_L_Finger42
										{
											OFFSET 	 1.535797	 0.0	 0.0
											CHANNELS 3 Xrotation Yrotation Zrotation 
											End Site
											{
												OFFSET 	 1.630142	 0.0	 0.0
											}
										}
									}
								}
							}
						}
					}
				}
				JOINT RightShoulder
				{
					OFFSET 	 -6.20549	 7.280139	 0.70887
					CHANNELS 3 Xrotation Yrotation Zrotation 
					JOINT RightArm
					{
						OFFSET 	 14.107998	 -1e-05	 0.0
						CHANNELS 3 Xrotation Yrotation Zrotation 
						JOINT RightForeArm
						{
							OFFSET 	 28.5802	 -1.9e-05	 0.0
							CHANNELS 3 Xrotation Yrotation Zrotation 
							JOINT RightHand
							{
								OFFSET 	 27.092003	 0.0	 0.0
								CHANNELS 3 Xrotation Yrotation Zrotation 
								JOINT Bip01_R_Finger0
								{
									OFFSET 	 2.676079	 -3.19825	 0.628212
									CHANNELS 3 Xrotation Yrotation Zrotation 
									JOINT Bip01_R_Finger01
									{
										OFFSET 	 2.82782	 0.0	 0.0
										CHANNELS 3 Xrotation Yrotation Zrotation 
										JOINT Bip01_R_Finger02
										{
											OFFSET 	 3.100342	 0.0	 0.0
											CHANNELS 3 Xrotation Yrotation Zrotation 
											End Site
											{
												OFFSET 	 2.68396	 0.0	 0.0
											}
										}
									}
								}
								JOINT Bip01_R_Finger1
								{
									OFFSET 	 9.438957	 -2.242439	 -0.203918
									CHANNELS 3 Xrotation Yrotation Zrotation 
									JOINT Bip01_R_Finger11
									{
										OFFSET 	 3.12896	 0.0	 0.0
										CHANNELS 3 Xrotation Yrotation Zrotation 
										JOINT Bip01_R_Finger12
										{
											OFFSET 	 2.379051	 0.0	 0.0
											CHANNELS 3 Xrotation Yrotation Zrotation 
											End Site
											{
												OFFSET 	 2.099922	 0.0	 0.0
											}
										}
									}
								}
								JOINT Bip01_R_Finger2
								{
									OFFSET 	 9.559288	 0.145353	 -0.186417
									CHANNELS 3 Xrotation Yrotation Zrotation 
									JOINT Bip01_R_Finger21
									{
										OFFSET 	 3.801407	 0.0	 0.0
										CHANNELS 3 Xrotation Yrotation Zrotation 
										JOINT Bip01_R_Finger22
										{
											OFFSET 	 2.848793	 0.0	 0.0
											CHANNELS 3 Xrotation Yrotation Zrotation 
											End Site
											{
												OFFSET 	 2.01886	 0.0	 0.0
											}
										}
									}
								}
								JOINT Bip01_R_Finger3
								{
									OFFSET 	 8.993629	 2.301691	 0.226974
									CHANNELS 3 Xrotation Yrotation Zrotation 
									JOINT Bip01_R_Finger31
									{
										OFFSET 	 3.369652	 0.0	 0.0
										CHANNELS 3 Xrotation Yrotation Zrotation 
										JOINT Bip01_R_Finger32
										{
											OFFSET 	 2.444221	 0.0	 0.0
											CHANNELS 3 Xrotation Yrotation Zrotation 
											End Site
											{
												OFFSET 	 2.057823	 0.0	 0.0
											}
										}
									}
								}
								JOINT Bip01_R_Finger4
								{
									OFFSET 	 8.023811	 3.97473	 1.20192
									CHANNELS 3 Xrotation Yrotation Zrotation 
									JOINT Bip01_R_Finger41
									{
										OFFSET 	 2.908783	 0.0	 0.0
										CHANNELS 3 Xrotation Yrotation Zrotation 
										JOINT Bip01_R_Finger42
										{
											OFFSET 	 1.535797	 0.0	 0.0
											CHANNELS 3 Xrotation Yrotation Zrotation 
											End Site
											{
												OFFSET 	 1.630142	 0.0	 0.0
											}
										}
									}
								}
							}
						}
					}
				}
			}
		}
	}
	JOINT LeftUpLeg
	{
		OFFSET 	 -12.021299	 -8.83685	 -0.372498
		CHANNELS 3 Xrotation Yrotation Zrotation 
		JOINT LeftLeg
		{
			OFFSET 	 39.9035	 0.0	 0.0
			CHANNELS 3 Xrotation Yrotation Zrotation 
			JOINT LeftFoot
			{
				OFFSET 	 39.6689	 0.0	 0.0
				CHANNELS 3 Xrotation Yrotation Zrotation 
				JOINT Bip01_L_Toe0
				{
					OFFSET 	 10.162399	 -2e-06	 13.629601
					CHANNELS 3 Xrotation Yrotation Zrotation 
					End Site
					{
						OFFSET 	 8.38147	 0.0	 0.0
					}
				}
			}
		}
	}
	JOINT RightUpLeg
	{
		OFFSET 	 -12.021299	 8.836849	 -0.372444
		CHANNELS 3 Xrotation Yrotation Zrotation 
		JOINT RightLeg
		{
			OFFSET 	 39.9035	 0.0	 0.0
			CHANNELS 3 Xrotation Yrotation Zrotation 
			JOINT RightFoot
			{
				OFFSET 	 39.6689	 0.0	 0.0
				CHANNELS 3 Xrotation Yrotation Zrotation 
				JOINT Bip01_R_Toe0
				{
					OFFSET 	 10.162399	 -2e-06	 13.629601
					CHANNELS 3 Xrotation Yrotation Zrotation 
					End Site
					{
						OFFSET 	 8.38147	 0.0	 0.0
					}
				}
			}
		}
	}
}
MOTION
Frames: 4
Frame Time: 0.013889
0.0	90.0	0.0	-176.574761075	2.51524319193	-88.1174212212	-0.501355	1.090049	-1.067562	-0.0	0.0	0.0	0.867284	-38.050164	6.328861	-6.049392	-18.606707	-7.596228	170.105132	-31.07782	109.857133	12.621507	5.524441	3.452048	-1.5e-05	38.44889	6e-06	-150.109909	2.224169	43.350131	-0.0	0.0	0.0	-0.0	1e-06	0.0	-1e-06	-1e-06	1e-06	-0.0	0.0	0.0	-0.0	0.0	0.0	-1e-06	-1e-06	1e-06	-0.0	-1e-06	0.0	-1e-06	-1e-06	-2.82490003075e-30	1e-06	-1e-06	1e-06	-0.0	-1e-06	-1e-06	-2e-06	-1e-06	1e-06	-0.0	0.0	1e-06	-0.0	-1e-06	-1e-06	-3e-06	-1e-06	1e-06	1e-06	-1e-06	1e-06	-167.841284	-24.856283	-101.741496	-8.272466	7.24716	-7.082975	0.000205	52.192098	1.1e-05	142.50855	-16.836985	-14.850276	-0.0	-1e-06	2e-06	-0.0	0.0	-2e-06	1e-06	0.0	-2e-06	-0.0	-1e-06	0.0	-0.0	0.0	-3e-06	1e-06	0.0	-3e-06	-0.0	0.0	2e-06	-1e-06	0.0	-1e-06	-0.0	0.0	1e-06	-0.0	-1e-06	1e-06	-0.0	0.0	-1e-06	-0.0	0.0	1e-06	-0.0	-1e-06	3e-06	-0.0	0.0	-4e-06	1e-06	0.0	-2e-06	21.699636	2.5174	-177.636281	-0.0	17.91373	3e-06	3.56134	-9.792336	0.993993	-2e-06	2e-06	0.0	-19.312322	6.403856	174.623253	1e-06	20.568662	3e-06	2.18642	-9.09453	2.797638	-1e-06	1e-06	1e-06	
0.186383186896	89.999885	-0.176452211951	-176.604710408	2.3487691587	-88.0996018698	-0.529995	1.155971	-0.951629	-0.0	0.0	0.0	0.778856	-38.118773	6.343664	-6.097555	-18.614011	-7.538628	170.172302	-31.093898	109.863198	12.674732	5.536641	3.471744	-1.4e-05	38.412591	5e-06	-150.193415	2.227761	43.349384	-0.0	-1e-06	-2e-06	-0.0	1e-06	1e-06	-0.0	1e-06	0.0	-0.0	0.0	-2e-06	-0.0	1e-06	0.0	-0.0	1e-06	0.0	1e-06	-1e-06	-2e-06	-2e-06	0.0	0.0	-0.0	1e-06	0.0	-0.0	0.0	-2e-06	-0.0	1e-06	1e-06	-0.0	-1e-06	1e-06	-1e-06	-3e-06	-2e-06	-0.0	1e-06	-1e-06	-0.0	-1e-06	-1e-06	-167.774475	-24.862594	-101.737316	-8.285722	7.202874	-6.970748	0.000207	52.214498	7e-06	142.37528	-16.963279	-15.030518	-0.0	0.0	-1e-06	-1e-06	0.0	0.0	-1e-06	0.0	0.0	-0.0	-1e-06	-1e-06	-1e-06	0.0	-1e-06	-0.0	0.0	0.0	-0.0	0.0	0.0	-0.0	0.0	1e-06	-0.0	0.0	1e-06	-0.0	0.0	-2e-06	-0.0	-1e-06	1e-06	-0.0	0.0	1e-06	-0.0	0.0	-1e-06	-0.0	0.0	1e-06	-1e-06	0.0	1e-06	21.648553	2.47542	-177.501044	-1e-06	17.893129	4e-06	3.692339	-9.858033	0.89014	-2e-06	3e-06	1e-06	-19.496239	6.164412	174.677143	-2e-06	20.40106	3e-06	2.205975	-9.187947	2.760837	2e-06	2e-06	0.0	
0.186383186896	89.999885	-0.176452211951	-176.604710408	2.3487691587	-88.0996018698	-0.529995	1.155971	-0.951629	-0.0	0.0	0.0	0.778856	-38.118773	6.343664	-6.097555	-18.614011	-7.538628	170.172302	-31.093898	109.863198	12.674732	5.536641	3.471744	-1.4e-05	38.412591	5e-06	-150.193415	2.227761	43.349384	-0.0	-1e-06	-2e-06	-0.0	1e-06	1e-06	-0.0	1e-06	0.0	-0.0	0.0	-2e-06	-0.0	1e-06	0.0	-0.0	1e-06	0.0	1e-06	-1e-06	-2e-06	-2e-06	0.0	0.0	-0.0	1e-06	0.0	-0.0	0.0	-2e-06	-0.0	1e-06	1e-06	-0.0	-1e-06	1e-06	-1e-06	-3e-06	-2e-06	-0.0	1e-06	-1e-06	-0.0	-1e-06	-1e-06	-167.774475	-24.862594	-101.737316	-8.285722	7.202874	-6.970748	0.000207	52.214498	7e-06	142.37528	-16.963279	-15.030518	-0.0	0.0	-1e-06	-1e-06	0.0	0.0	-1e-06	0.0	0.0	-0.0	-1e-06	-1e-06	-1e-06	0.0	-1e-06	-0.0	0.0	0.0	-0.0	0.0	0.0	-0.0	0.0	1e-06	-0.0	0.0	1e-06	-0.0	0.0	-2e-06	-0.0	-1e-06	1e-06	-0.0	0.0	1e-06	-0.0	0.0	-1e-06	-0.0	0.0	1e-06	-1e-06	0.0	1e-06	21.648553	2.47542	-177.501044	-1e-06	17.893129	4e-06	3.692339	-9.858033	0.89014	-2e-06	3e-06	1e-06	-19.496239	6.164412	174.677143	-2e-06	20.40106	3e-06	2.205975	-9.187947	2.760837	2e-06	2e-06	0.0	
0.363287563972	89.999695	-0.344504622452	-176.650443939	2.18179808166	-88.0961780009	-0.562947	1.218613	-0.832054	-0.0	0.0	0.0	0.690934	-38.18852	6.357943	-6.137152	-18.604961	-7.474676	170.228655	-31.099199	109.864059	12.665134	5.552796	3.442052	-1.4e-05	38.390198	7e-06	-150.277535	2.199223	43.300992	-0.0	0.0	1e-06	-0.0	3e-06	-1e-06	-0.0	2e-06	0.0	-0.0	0.0	1e-06	-0.0	3e-06	0.0	-0.0	2e-06	0.0	-2e-06	0.0	0.0	3e-06	1e-06	-1e-06	1e-06	2e-06	0.0	-2e-06	0.0	-1e-06	-3e-06	2e-06	1e-06	-1e-06	2e-06	1e-06	-2e-06	0.0	0.0	-0.0	0.0	0.0	-0.0	2e-06	0.0	-167.699552	-24.859343	-101.739733	-8.344575	7.170243	-6.849197	0.000208	52.240097	5e-06	142.40383	-16.988566	-15.238608	-1e-06	0.0	-1e-06	-0.0	0.0	0.0	-0.0	0.0	-2e-06	-1e-06	0.0	-1e-06	-1e-06	0.0	0.0	-1e-06	0.0	2e-06	-1e-06	0.0	-1e-06	-0.0	0.0	0.0	-0.0	-1e-06	0.0	-1e-06	0.0	-1e-06	-0.0	0.0	-1e-06	-0.0	0.0	0.0	-1e-06	0.0	0.0	-0.0	0.0	1e-06	-0.0	0.0	-1e-06	21.61092	2.487633	-177.363989	1e-06	17.922229	3e-06	3.836354	-9.938969	0.792771	-2e-06	-4e-06	-1e-06	-19.63253	5.949226	174.755376	1e-06	20.247259	4e-06	2.271332	-9.273945	2.745636	-0.0	0.0	-2e-06	
